<?xml version="1.0" standalone="no"?>
<!DOCTYPE svg PUBLIC "-//W3C//DTD SVG 20010904//EN"
 "http://www.w3.org/TR/2001/REC-SVG-20010904/DTD/svg10.dtd">
<svg version="1.0" xmlns="http://www.w3.org/2000/svg"
 width="144.000000pt" height="144.000000pt" viewBox="0 0 144.000000 144.000000"
 preserveAspectRatio="xMidYMid meet">
<metadata>
Created by potrace 1.14, written by Peter Selinger 2001-2017
</metadata>
<g transform="translate(0.000000,144.000000) scale(0.100000,-0.100000)"
fill="#000000" stroke="none">
<path d="M670 1176 l0 -76 -261 0 c-234 0 -261 -2 -255 -16 3 -9 6 -18 6 -20
0 -2 115 -4 255 -4 l255 0 0 -55 0 -55 -114 0 c-99 0 -121 3 -170 25 -31 14
-61 25 -66 25 -6 0 -10 -86 -10 -226 l0 -226 28 7 c42 10 72 33 72 55 0 19 7
20 130 20 l130 0 0 -60 0 -60 -221 0 -220 0 7 -22 c15 -51 35 -79 52 -74 44
13 168 27 412 46 146 11 284 22 308 25 41 5 45 3 105 -55 72 -70 93 -75 102
-26 17 89 -26 126 -200 171 -113 29 -115 29 -115 12 0 -7 21 -24 48 -37 l47
-24 -100 -8 c-55 -4 -106 -6 -112 -3 -8 3 -13 25 -13 60 l0 55 125 0 c120 0
125 -1 125 -21 0 -18 4 -20 28 -14 15 3 38 12 52 18 l25 13 -4 126 -3 127 27
24 28 24 -59 36 c-32 20 -61 37 -64 37 -4 0 -13 -11 -20 -25 -13 -25 -15 -25
-137 -25 l-123 0 0 55 0 55 265 0 c149 0 265 4 265 9 0 5 -27 34 -61 65 -67
62 -71 62 -110 0 l-21 -34 -169 0 -169 0 0 44 c0 36 4 46 20 51 43 14 9 35
-82 51 l-38 6 0 -76z m-2 -313 l-3 -48 -127 -3 -128 -3 0 51 0 50 131 0 130 0
-3 -47z m352 -3 l0 -51 -122 3 -123 3 -3 48 -3 47 125 0 126 0 0 -50z m-350
-135 l0 -55 -130 0 -130 0 0 55 0 55 130 0 130 0 0 -55z m350 0 l0 -55 -125 0
-125 0 0 55 0 55 125 0 125 0 0 -55z"/>
<path d="M650 420 c0 -5 15 -31 34 -57 18 -27 40 -65 47 -87 8 -21 20 -41 28
-44 22 -9 61 44 61 83 0 29 -6 39 -37 59 -31 21 -113 56 -129 56 -2 0 -4 -4
-4 -10z"/>
<path d="M450 252 c0 -111 4 -163 13 -175 8 -11 37 -21 82 -28 85 -14 368 -6
410 10 62 25 97 83 60 98 -24 8 -42 52 -50 116 -4 34 -12 56 -18 54 -6 -2 -16
-36 -23 -77 -19 -112 -24 -115 -198 -115 -106 0 -147 4 -159 14 -14 11 -17 32
-17 106 0 85 2 94 23 108 21 14 21 15 -32 31 -97 29 -91 38 -91 -142z"/>
<path d="M997 383 c-4 -3 24 -38 62 -78 47 -49 79 -96 104 -148 20 -43 39 -77
42 -77 34 0 65 55 65 115 0 44 -48 87 -167 148 -99 51 -97 50 -106 40z"/>
<path d="M295 329 c-17 -51 -58 -100 -128 -152 -57 -43 -47 -97 17 -97 71 0
132 70 146 168 8 61 2 132 -11 132 -4 0 -15 -23 -24 -51z"/>
</g>
</svg>
